:FULLY-SPECIFIED
:FORCE-ALL-JOINTS-BE-3DOF
:DEGREES
374
root 6.09326 16.5295 -15.5577 9.22731 -18.3168 -6.30286
lfemur -42.0342 19.6743 -12.127
ltibia 55.1317 0 0
lfoot -6.45255 1.44408 0
ltoes 13.5263 0 0
rfemur -22.0339 -2.7083 31.0267
rtibia 40.404 0 0
rfoot -21.6308 0.710072 0
rtoes 16.8223 0 0
lowerback 4.60115 2.12243 3.423
upperback 2.40874 2.96209 0.848236
thorax 0.0606633 1.49987 -1.18445
lowerneck -7.39038 -1.37607 3.17132
upperneck 0.0133713 -2.16611 2.17545
head 1.2503 -1.03666 0.0723014
lclavicle 6.46952e-15 -2.12645e-15 0
lhumerus -40.4597 -22.7523 94.7283
lradius 55.1642 0 0
lwrist 17.1344 0 0
lhand -19.8083 2.94895 0
lfingers 7.12502 0 0
lthumb 6.52108 32.7468 0
rclavicle 6.46952e-15 -2.12645e-15 0
rhumerus -38.3812 13.0619 -93.7426
rradius 60.4939 0 0
rwrist 9.17647 0 0
rhand -14.4556 -21.154 0
rfingers 7.12502 0 0
rthumb 11.6853 -770.659 0
375
root 6.04723 16.534 -15.4378 9.3334 -19.1765 -6.47892
lfemur -43.4472 19.8219 -12.7357
ltibia 54.2442 0 0
lfoot -7.00245 1.9187 0
ltoes 13.4755 0 0
rfemur -21.3279 -1.95446 31.1508
rtibia 40.0831 0 0
rfoot -21.9624 0.679396 0
rtoes 17.2518 0 0
lowerback 4.73281 2.22993 3.58892
upperback 2.43077 3.11296 0.799943
thorax 0.0194372 1.57674 -1.33424
lowerneck -7.38285 -1.21183 3.34454
upperneck -0.0385363 -1.95759 2.06549
head 1.22483 -0.935556 0.0166708
lclavicle 6.83368e-15 -2.88104e-15 0
lhumerus -40.2242 -22.7219 94.2549
lradius 55.0422 0 0
lwrist 17.2035 0 0
lhand -20.6103 2.63479 0
lfingers 7.12502 0 0
lthumb 5.74805 32.4797 0
rclavicle 6.83368e-15 -2.88104e-15 0
rhumerus -38.3174 13.4708 -93.8569
rradius 59.6335 0 0
rwrist 9.54219 0 0
rhand -13.35 -20.2623 0
rfingers 7.12502 0 0
rthumb 12.7525 -769.748 0
376
root 6.00927 16.5377 -15.3389 9.42089 -19.8854 -6.62413
lfemur -44.6125 19.9436 -13.2377
ltibia 53.5123 0 0
lfoot -7.45596 2.31013 0
ltoes 13.4335 0 0
rfemur -20.7456 -1.33275 31.2531
rtibia 39.8185 0 0
rfoot -22.2358 0.654097 0
rtoes 17.606 0 0
lowerback 4.84138 2.31858 3.72575
upperback 2.44893 3.23738 0.760115
thorax -0.0145627 1.64013 -1.45778
lowerneck -7.37664 -1.07638 3.4874
upperneck -0.0813455 -1.78562 1.9748
head 1.20382 -0.852176 -0.0292087
lclavicle 7.13401e-15 -3.50336e-15 0
lhumerus -40.03 -22.6969 93.8645
lradius 54.9417 0 0
lwrist 17.2605 0 0
lhand -21.2717 2.37569 0
lfingers 7.12502 0 0
lthumb 5.11052 32.2594 0
rclavicle 7.13401e-15 -3.50336e-15 0
rhumerus -38.2648 13.8081 -93.9513
rradius 58.9238 0 0
rwrist 9.8438 0 0
rhand -12.4382 -19.5269 0
rfingers 7.12502 0 0
rthumb 13.6326 -768.996 0
377
root 5.98062 16.5405 -15.2643 9.48693 -20.4206 -6.73373
lfemur -45.492 20.0354 -13.6166
ltibia 52.9599 0 0
lfoot -7.79826 2.60557 0
ltoes 13.4019 0 0
rfemur -20.3061 -0.863507 31.3304
rtibia 39.6187 0 0
rfoot -22.4422 0.635002 0
rtoes 17.8733 0 0
lowerback 4.92334 2.38549 3.82903
upperback 2.46265 3.3313 0.730054
thorax -0.0402248 1.68798 -1.55102
lowerneck -7.37195 -0.97414 3.59523
upperneck -0.113656 -1.65583 1.90635
head 1.18796 -0.789243 -0.0638372
lclavicle 7.36069e-15 -3.97307e-15 0
lhumerus -39.8835 -22.678 93.5698
lradius 54.8658 0 0
lwrist 17.3035 0 0
lhand -21.7709 2.18013 0
lfingers 7.12502 0 0
lthumb 4.62933 32.0931 0
rclavicle 7.36069e-15 -3.97307e-15 0
rhumerus -38.2251 14.0626 -94.0224
rradius 58.3882 0 0
rwrist 10.0714 0 0
rhand -11.75 -18.9718 0
rfingers 7.12502 0 0
rthumb 14.2969 -768.429 0
378
root 5.96252 16.5423 -15.2171 9.52865 -20.7587 -6.80297
lfemur -46.0477 20.0935 -13.856
ltibia 52.6109 0 0
lfoot -8.01451 2.79222 0
ltoes 13.3819 0 0
rfemur -20.0285 -0.567053 31.3792
rtibia 39.4925 0 0
rfoot -22.5726 0.622938 0
rtoes 18.0422 0 0
lowerback 4.97511 2.42776 3.89428
upperback 2.47131 3.39063 0.711062
thorax -0.0564373 1.71821 -1.60993
lowerneck -7.36899 -0.909551 3.66335
upperneck -0.13407 -1.57382 1.8631
head 1.17794 -0.749484 -0.0857143
lclavicle 7.5039e-15 -4.26982e-15 0
lhumerus -39.7909 -22.6661 93.3836
lradius 54.8178 0 0
lwrist 17.3307 0 0
lhand -22.0863 2.05658 0
lfingers 7.12502 0 0
lthumb 4.32533 31.9881 0
rclavicle 7.5039e-15 -4.26982e-15 0
rhumerus -38.2 14.2234 -94.0674
rradius 58.0498 0 0
rwrist 10.2153 0 0
rhand -11.3152 -18.6211 0
rfingers 7.12502 0 0
rthumb 14.7166 -768.071 0
379
root 5.95621 16.5429 -15.2007 9.54319 -20.8765 -6.8271
lfemur -46.2414 20.1137 -13.9394
ltibia 52.4892 0 0
lfoot -8.08989 2.85728 0
ltoes 13.3749 0 0
rfemur -19.9317 -0.463717 31.3962
rtibia 39.4485 0 0
rfoot -22.618 0.618733 0
rtoes 18.1011 0 0
lowerback 4.99316 2.4425 3.91702
upperback 2.47433 3.41131 0.704442
thorax -0.0620885 1.72875 -1.63046
lowerneck -7.36796 -0.887037 3.6871
upperneck -0.141185 -1.54524 1.84803
head 1.17445 -0.735625 -0.0933401
lclavicle 7.55382e-15 -4.37326e-15 0
lhumerus -39.7586 -22.6619 93.3187
lradius 54.8011 0 0
lwrist 17.3402 0 0
lhand -22.1962 2.01352 0
lfingers 7.12502 0 0
lthumb 4.21936 31.9515 0
rclavicle 7.55382e-15 -4.37326e-15 0
rhumerus -38.1913 14.2795 -94.0831
rradius 57.9319 0 0
rwrist 10.2654 0 0
rhand -11.1636 -18.4989 0
rfingers 7.12502 0 0
rthumb 14.8629 -767.946 0
380
root 5.94942 16.542 -15.1805 9.51473 -20.9576 -6.8161
lfemur -46.1483 19.9939 -13.8919
ltibia 52.4013 0 0
lfoot -8.07903 2.93756 0
ltoes 13.2912 0 0
rfemur -19.9637 -0.572742 31.3709
rtibia 39.6543 0 0
rfoot -22.4679 0.603757 0
rtoes 18.1701 0 0
lowerback 4.98689 2.45499 3.89973
upperback 2.46857 3.4271 0.692907
thorax -0.0641566 1.73652 -1.63309
lowerneck -7.36044 -0.876058 3.7049
upperneck -0.117492 -1.53246 1.84914
head 1.18105 -0.728536 -0.0956199
lclavicle 7.3967e-15 -4.43873e-15 0
lhumerus -39.7888 -22.6402 93.3228
lradius 54.7811 0 0
lwrist 17.3488 0 0
lhand -22.1475 2.03009 0
lfingers 7.12502 0 0
lthumb 4.26637 31.9663 0
rclavicle 7.3967e-15 -4.43873e-15 0
rhumerus -38.2345 14.2604 -94.076
rradius 57.9446 0 0
rwrist 10.2521 0 0
rhand -11.2043 -18.4945 0
rfingers 7.12502 0 0
rthumb 14.8237 -767.944 0
381
root 5.92996 16.5394 -15.1226 9.43309 -21.1904 -6.78453
lfemur -45.8813 19.6501 -13.7555
ltibia 52.1491 0 0
lfoot -8.04787 3.16786 0
ltoes 13.0509 0 0
rfemur -20.0554 -0.88552 31.2982
rtibia 40.2446 0 0
rfoot -22.0374 0.560791 0
rtoes 18.3679 0 0
lowerback 4.96891 2.49083 3.85014
upperback 2.45204 3.4724 0.659815
thorax -0.0700898 1.75882 -1.64064
lowerneck -7.33886 -0.84456 3.75598
upperneck -0.0495197 -1.49578 1.85232
head 1.19997 -0.708197 -0.10216
lclavicle 6.94594e-15 -4.62654e-15 0
lhumerus -39.8756 -22.5779 93.3346
lradius 54.7237 0 0
lwrist 17.3734 0 0
lhand -22.0077 2.07763 0
lfingers 7.12502 0 0
lthumb 4.40125 32.0088 0
rclavicle 6.94594e-15 -4.62654e-15 0
rhumerus -38.3583 14.2058 -94.0555
rradius 57.9809 0 0
rwrist 10.214 0 0
rhand -11.3209 -18.482 0
rfingers 7.12502 0 0
rthumb 14.7112 -767.938 0
382
root 5.89914 16.5354 -15.0309 9.30387 -21.5587 -6.73456
lfemur -45.4586 19.1059 -13.5396
ltibia 51.7499 0 0
lfoot -7.99855 3.5324 0
ltoes 12.6706 0 0
rfemur -20.2005 -1.3806 31.1831
rtibia 41.1791 0 0
rfoot -21.356 0.492784 0
rtoes 18.6811 0 0
lowerback 4.94044 2.54755 3.77163
upperback 2.42588 3.54411 0.607434
thorax -0.0794812 1.79411 -1.6526
lowerneck -7.30469 -0.794704 3.83683
upperneck 0.0580704 -1.43773 1.85734
head 1.22992 -0.676003 -0.112513
lclavicle 6.23245e-15 -4.92383e-15 0
lhumerus -40.0129 -22.4792 93.3532
lradius 54.6329 0 0
lwrist 17.4124 0 0
lhand -21.7865 2.15287 0
lfingers 7.12502 0 0
lthumb 4.61473 32.0761 0
rclavicle 6.23245e-15 -4.92383e-15 0
rhumerus -38.5542 14.1192 -94.0232
rradius 58.0383 0 0
rwrist 10.1537 0 0
rhand -11.5056 -18.4621 0
rfingers 7.12502 0 0
rthumb 14.5332 -767.928 0
383
root 5.85831 16.53 -14.9094 9.13265 -22.0468 -6.66836
lfemur -44.8986 18.385 -13.2536
ltibia 51.2211 0 0
lfoot -7.9332 4.01538 0
ltoes 12.1668 0 0
rfemur -20.3929 -2.03654 31.0307
rtibia 42.4171 0 0
rfoot -20.4532 0.40268 0
rtoes 19.096 0 0
lowerback 4.90273 2.6227 3.66762
upperback 2.39121 3.63912 0.538035
thorax -0.091924 1.84087 -1.66843
lowerneck -7.25944 -0.728649 3.94394
upperneck 0.200618 -1.36083 1.86401
head 1.26961 -0.63335 -0.126229
lclavicle 5.28715e-15 -5.31771e-15 0
lhumerus -40.1948 -22.3485 93.3779
lradius 54.5126 0 0
lwrist 17.4641 0 0
lhand -21.4935 2.25256 0
lfingers 7.12502 0 0
lthumb 4.89758 32.1653 0
rclavicle 5.28715e-15 -5.31771e-15 0
rhumerus -38.8138 14.0046 -93.9803
rradius 58.1145 0 0
rwrist 10.0738 0 0
rhand -11.7502 -18.4358 0
rfingers 7.12502 0 0
rthumb 14.2973 -767.916 0
384
root 5.80881 16.5235 -14.7621 8.92505 -22.6386 -6.58809
lfemur -44.2196 17.5108 -12.9068
ltibia 50.5798 0 0
lfoot -7.85397 4.60101 0
ltoes 11.5558 0 0
rfemur -20.6261 -2.83189 30.8458
rtibia 43.9183 0 0
rfoot -19.3585 0.293426 0
rtoes 19.5991 0 0
lowerback 4.85699 2.71382 3.54151
upperback 2.34918 3.75432 0.453886
thorax -0.107011 1.89756 -1.68763
lowerneck -7.20456 -0.648555 4.07382
upperneck 0.373461 -1.26757 1.87209
head 1.31773 -0.581632 -0.14286
lclavicle 4.14094e-15 -5.7953e-15 0
lhumerus -40.4154 -22.1901 93.4079
lradius 54.3667 0 0
lwrist 17.5267 0 0
lhand -21.1381 2.37344 0
lfingers 7.12502 0 0
lthumb 5.24055 32.2734 0
rclavicle 4.14094e-15 -5.7953e-15 0
rhumerus -39.1286 13.8656 -93.9283
rradius 58.2068 0 0
rwrist 9.97688 0 0
rhand -12.0468 -18.4039 0
rfingers 7.12502 0 0
rthumb 14.0113 -767.9 0
385
root 5.75196 16.516 -14.5929 8.68666 -23.3182 -6.49592
lfemur -43.4399 16.5069 -12.5086
ltibia 49.8434 0 0
lfoot -7.76298 5.2735 0
ltoes 10.8543 0 0
rfemur -20.8939 -3.7452 30.6336
rtibia 45.6421 0 0
rfoot -18.1014 0.167968 0
rtoes 20.1769 0 0
lowerback 4.80448 2.81846 3.39669
upperback 2.30092 3.8866 0.357257
thorax -0.124336 1.96267 -1.70968
lowerneck -7.14154 -0.556582 4.22297
upperneck 0.57194 -1.16048 1.88137
head 1.37298 -0.522243 -0.161958
lclavicle 2.82472e-15 -6.34372e-15 0
lhumerus -40.6687 -22.0081 93.4423
lradius 54.1991 0 0
lwrist 17.5986 0 0
lhand -20.7301 2.51225 0
lfingers 7.12502 0 0
lthumb 5.63438 32.3976 0
rclavicle 2.82472e-15 -6.34372e-15 0
rhumerus -39.4901 13.706 -93.8686
rradius 58.3128 0 0
rwrist 9.86561 0 0
rhand -12.3874 -18.3672 0
rfingers 7.12502 0 0
rthumb 13.6828 -767.883 0
386
root 5.68911 16.5078 -14.4059 8.42308 -24.0696 -6.394
lfemur -42.5778 15.397 -12.0683
ltibia 49.0292 0 0
lfoot -7.66238 6.01706 0
ltoes 10.0786 0 0
rfemur -21.19 -4.75502 30.3989
rtibia 47.5481 0 0
rfoot -16.7115 0.0292519 0
rtoes 20.8157 0 0
lowerback 4.74642 2.93416 3.23657
upperback 2.24756 4.03286 0.250416
thorax -0.143492 2.03466 -1.73407
lowerneck -7.07186 -0.45489 4.38787
upperneck 0.791393 -1.04208 1.89163
head 1.43408 -0.456578 -0.183075
lclavicle 1.36942e-15 -6.9501e-15 0
lhumerus -40.9487 -21.8069 93.4803
lradius 54.0139 0 0
lwrist 17.6781 0 0
lhand -20.2789 2.66573 0
lfingers 7.12502 0 0
lthumb 6.06983 32.5349 0
rclavicle 1.36942e-15 -6.9501e-15 0
rhumerus -39.8898 13.5295 -93.8026
rradius 58.43 0 0
rwrist 9.74258 0 0
rhand -12.764 -18.3267 0
rfingers 7.12502 0 0
rthumb 13.3197 -767.863 0
